<?xml version="1.0" standalone="no"?>
<!DOCTYPE svg PUBLIC "-//W3C//DTD SVG 20010904//EN"
 "http://www.w3.org/TR/2001/REC-SVG-20010904/DTD/svg10.dtd">
<svg version="1.0" xmlns="http://www.w3.org/2000/svg"
 width="1104.000000pt" height="1280.000000pt" viewBox="0 0 1104.000000 1280.000000"
 preserveAspectRatio="xMidYMid meet">
<metadata>
waylau.com
</metadata>
<g transform="translate(0.000000,1280.000000) scale(0.100000,-0.100000)"
fill="#000000" stroke="none">
<path d="M6735 12786 c-57 -25 -95 -93 -95 -167 0 -44 51 -158 108 -241 35
-52 92 -191 92 -225 0 -14 16 -54 36 -90 32 -56 84 -230 84 -279 0 -26 -39
-15 -158 45 -64 32 -142 66 -172 76 -30 10 -76 31 -102 46 -47 28 -160 72
-228 89 -19 5 -78 18 -130 30 -52 12 -162 37 -245 56 -177 40 -384 70 -550 79
-107 6 -186 1 -378 -21 l-55 -7 -45 69 c-46 73 -87 107 -178 149 -45 20 -150
49 -155 42 -1 -1 -5 -16 -8 -33 -6 -27 -3 -35 21 -52 15 -11 37 -21 48 -23 20
-4 55 -83 55 -125 0 -25 -41 -65 -97 -93 -68 -34 -80 -30 -88 30 -6 43 -15 59
-52 96 -68 68 -141 98 -235 97 -111 -2 -188 -35 -188 -82 0 -4 25 -16 55 -26
66 -21 131 -69 157 -116 25 -45 17 -104 -24 -182 -33 -64 -32 -64 -110 -8
-105 76 -279 59 -390 -39 -34 -30 -75 -97 -65 -107 3 -3 25 0 48 6 155 42 259
-39 259 -202 l0 -48 -108 7 c-97 5 -113 4 -157 -16 -73 -32 -116 -65 -157
-118 -34 -45 -74 -140 -64 -150 3 -3 33 10 68 27 82 42 156 49 205 19 52 -32
133 -207 133 -286 0 -37 1 -36 -115 -78 -59 -21 -129 -88 -155 -149 -21 -46
-38 -166 -24 -166 5 0 38 25 72 55 57 50 68 55 110 55 37 0 58 -7 98 -34 61
-41 149 -157 159 -207 7 -36 6 -37 -49 -68 -61 -35 -81 -59 -127 -151 -35 -70
-48 -155 -30 -189 16 -29 30 -18 72 55 35 62 29 58 97 77 52 16 52 16 110 -14
71 -38 112 -76 112 -105 0 -13 -19 -44 -42 -71 -62 -72 -78 -114 -78 -213 0
-102 6 -127 32 -135 28 -10 48 13 48 55 0 29 8 47 38 80 34 39 43 43 94 48 43
3 65 -1 99 -17 67 -33 103 -51 119 -61 8 -6 33 -19 55 -31 49 -27 115 -80 115
-94 0 -6 -16 -34 -36 -64 -57 -84 -74 -129 -73 -196 0 -133 32 -199 86 -179
27 9 28 12 25 64 -3 44 1 62 20 89 56 83 162 100 278 45 36 -17 90 -39 120
-49 30 -10 84 -31 120 -48 46 -21 86 -31 135 -35 61 -4 78 -10 135 -47 36 -23
109 -66 164 -95 54 -29 112 -65 130 -80 17 -15 51 -37 76 -50 25 -12 78 -45
119 -72 45 -31 89 -52 112 -55 25 -4 44 -13 53 -28 16 -24 184 -131 266 -169
27 -13 70 -42 95 -65 41 -38 134 -91 160 -91 6 0 16 -9 22 -20 7 -11 27 -27
45 -36 18 -9 47 -29 63 -44 17 -16 60 -44 98 -64 37 -19 85 -50 106 -68 22
-18 126 -86 233 -150 106 -64 231 -146 276 -182 46 -36 90 -66 97 -66 7 0 34
-28 58 -63 25 -34 73 -93 106 -130 90 -100 171 -273 171 -364 0 -18 5 -52 11
-75 10 -36 8 -57 -9 -134 -47 -196 -168 -351 -342 -436 -52 -26 -128 -54 -167
-64 -186 -43 -500 21 -848 176 -144 64 -357 161 -363 166 -2 1 2 12 8 24 23
44 5 65 -147 171 -178 124 -226 163 -258 209 -37 54 -33 92 15 144 41 45 164
126 190 126 11 0 12 2 1 13 -19 19 -156 14 -221 -7 -94 -32 -133 -56 -206
-127 -82 -81 -91 -82 -162 -5 -49 53 -65 87 -56 122 6 24 97 114 115 114 5 0
13 10 18 22 5 14 25 28 57 39 l49 16 -46 8 c-31 5 -67 2 -110 -9 -199 -50
-352 -195 -353 -336 -1 -52 -2 -55 -25 -52 -12 2 -123 39 -245 83 -126 46
-249 84 -286 88 -36 5 -78 14 -93 20 -15 6 -83 18 -150 26 -67 8 -154 24 -192
35 -84 24 -403 65 -633 81 -141 9 -193 8 -332 -5 -91 -9 -182 -19 -202 -22
-33 -5 -38 -4 -38 14 0 49 -27 52 -385 42 -138 -4 -164 -2 -192 13 -72 38 -79
114 -25 249 16 40 28 75 27 76 -10 11 -82 -38 -123 -83 -52 -57 -90 -126 -119
-220 -19 -62 -24 -167 -10 -197 7 -14 -6 -24 -75 -59 -103 -52 -171 -58 -213
-19 -36 34 -58 117 -53 206 3 72 3 73 -17 60 -39 -26 -87 -144 -100 -246 -11
-84 -11 -101 6 -158 10 -35 28 -84 39 -108 12 -24 20 -53 18 -65 -4 -31 -79
-69 -134 -69 -81 0 -145 88 -162 224 l-7 59 -26 -49 c-28 -51 -53 -149 -44
-165 3 -5 10 -43 14 -85 16 -137 98 -259 192 -284 61 -17 65 -29 36 -117 -14
-43 -37 -133 -53 -201 -28 -122 -28 -123 -17 -290 14 -196 33 -263 114 -400
41 -68 86 -122 212 -249 89 -89 175 -168 192 -174 16 -7 39 -20 50 -29 11 -9
65 -41 120 -70 55 -29 114 -63 132 -76 18 -14 53 -33 79 -44 26 -12 78 -43
115 -70 66 -48 204 -120 230 -120 7 0 26 -11 43 -24 51 -38 126 -72 204 -91
39 -9 83 -26 96 -36 23 -18 100 -48 316 -123 52 -19 111 -40 130 -49 48 -21
216 -74 265 -82 22 -4 67 -22 100 -40 33 -18 82 -38 110 -44 53 -13 410 -150
459 -176 16 -9 84 -37 150 -62 67 -25 160 -66 208 -89 48 -24 98 -44 112 -44
14 0 28 -5 31 -10 11 -18 267 -136 345 -159 41 -13 139 -56 217 -96 78 -41
161 -79 183 -86 22 -7 40 -17 40 -24 0 -6 22 -22 50 -35 27 -13 59 -34 71 -47
13 -12 28 -23 35 -23 6 0 18 -7 25 -17 8 -9 26 -23 40 -32 14 -9 134 -116 265
-239 254 -237 395 -394 485 -542 29 -47 63 -98 76 -113 13 -16 23 -34 23 -40
0 -6 18 -40 39 -76 21 -36 45 -84 51 -106 7 -22 20 -51 30 -65 9 -14 22 -43
28 -65 6 -22 18 -63 25 -90 8 -28 24 -117 36 -198 l22 -149 -26 -94 c-30 -113
-59 -166 -138 -250 -143 -153 -296 -205 -539 -184 -206 18 -343 94 -574 320
-142 139 -347 405 -389 506 -9 21 -26 50 -39 64 -13 14 -55 75 -94 135 -64 99
-105 143 -419 457 l-348 346 -235 153 c-251 162 -303 187 -459 215 -47 8 -138
27 -201 42 -108 25 -129 27 -356 27 l-241 0 -36 -28 c-96 -73 -94 -208 4 -257
32 -17 56 -21 122 -19 45 2 106 -3 135 -10 29 -7 62 -11 73 -8 29 8 162 -28
234 -63 33 -16 77 -32 98 -35 20 -4 52 -18 70 -31 17 -13 59 -39 92 -60 60
-36 117 -80 210 -162 27 -25 60 -48 72 -53 13 -5 23 -16 23 -26 0 -10 25 -37
55 -60 30 -23 62 -57 71 -75 9 -18 43 -67 74 -108 72 -95 111 -156 192 -302
60 -107 64 -118 46 -124 -34 -10 -88 -65 -112 -113 -44 -86 -57 -230 -27 -280
15 -24 37 -5 51 43 13 46 49 86 77 86 16 0 11 -26 -23 -119 -31 -83 -33 -170
-4 -196 26 -24 39 -12 60 53 19 58 59 87 86 60 16 -15 16 -20 -1 -70 -10 -30
-20 -96 -23 -153 -4 -90 -2 -102 15 -118 19 -17 20 -16 36 43 15 52 22 63 51
77 19 9 44 13 57 10 31 -8 111 -89 152 -153 101 -160 136 -212 177 -256 36
-41 49 -49 71 -46 30 5 33 0 167 -282 40 -83 76 -143 108 -179 l48 -54 -24
-16 c-110 -70 -178 -240 -151 -379 15 -76 66 -187 85 -186 66 3 61 -5 61 98 0
102 10 126 68 170 64 48 214 9 307 -80 64 -61 194 -136 272 -158 29 -8 80 -26
113 -40 34 -15 79 -26 105 -26 25 0 77 -7 117 -17 67 -15 78 -15 155 0 103 20
223 59 306 98 68 33 182 122 182 143 0 7 11 18 25 24 14 6 25 18 25 26 0 8 9
17 19 21 26 8 151 131 151 148 0 7 13 23 29 35 18 13 58 76 107 169 43 81 90
169 106 195 15 27 35 74 44 105 9 32 23 67 30 78 35 55 88 355 100 565 l7 126
58 11 c158 30 265 138 292 297 6 34 7 71 3 82 -7 17 -11 15 -39 -21 -49 -62
-88 -94 -135 -112 -61 -23 -110 -6 -178 61 -59 60 -70 90 -138 375 -28 118
-50 183 -95 280 -33 69 -63 142 -69 162 -9 34 -8 37 25 54 73 40 164 181 179
280 6 46 -14 135 -39 170 -14 18 -16 16 -33 -35 -51 -148 -98 -196 -181 -186
-44 6 -126 43 -175 79 -61 45 -238 278 -238 313 0 13 18 44 44 73 63 70 89
146 84 243 -3 68 -6 81 -30 104 l-26 27 -22 -72 c-25 -85 -65 -136 -122 -153
-35 -10 -48 -9 -111 12 -73 25 -66 20 -289 223 -63 57 -72 84 -38 114 13 13
24 47 34 106 17 96 13 135 -16 185 l-20 33 -22 -64 c-36 -108 -105 -177 -163
-162 -34 8 -92 46 -200 129 -135 104 -304 207 -420 255 -56 24 -121 55 -145
70 -54 34 -404 207 -438 216 -52 14 -266 109 -296 131 -17 12 -88 47 -159 78
-70 30 -191 93 -269 140 -77 46 -190 111 -251 144 -60 34 -132 78 -160 100
-27 22 -112 82 -188 133 -103 69 -162 118 -235 193 -157 164 -202 243 -243
434 -26 117 -21 199 17 317 24 72 33 87 93 145 41 40 92 78 133 98 186 91 452
80 756 -32 24 -9 121 -37 217 -61 171 -45 270 -80 363 -129 47 -25 194 -92
307 -139 73 -31 209 -103 250 -133 17 -12 41 -24 55 -27 26 -7 228 -119 335
-186 33 -21 89 -53 125 -71 36 -18 79 -45 96 -60 18 -15 65 -40 105 -55 87
-33 205 -90 213 -104 4 -5 111 -64 239 -130 128 -66 259 -136 291 -155 32 -20
80 -43 105 -52 112 -42 256 -107 306 -138 29 -19 71 -40 93 -45 22 -6 45 -18
52 -25 6 -8 26 -18 43 -21 18 -4 75 -26 127 -50 52 -24 130 -51 172 -61 90
-22 105 -44 31 -44 -49 0 -246 56 -305 86 -18 9 -75 32 -128 50 -52 18 -144
54 -205 79 -60 26 -153 64 -205 85 -220 87 -375 177 -493 287 -54 51 -74 64
-95 61 -23 -2 -28 -9 -30 -37 -3 -32 4 -42 109 -143 61 -59 118 -108 125 -108
7 0 36 -22 66 -48 29 -27 87 -70 128 -96 41 -27 99 -68 129 -93 63 -51 93 -68
140 -78 18 -4 42 -16 52 -26 10 -10 28 -19 39 -19 10 0 23 -6 27 -14 11 -19
140 -86 165 -86 12 0 26 -6 32 -14 34 -43 557 -206 662 -206 52 0 338 -74 372
-96 15 -10 45 -23 67 -30 22 -6 39 -17 37 -23 -1 -6 6 -14 15 -18 41 -15 113
-87 137 -136 75 -153 47 -307 -71 -395 -109 -80 -217 -89 -441 -36 -57 13
-105 24 -108 24 -2 0 -4 -18 -4 -40 0 -23 5 -40 12 -40 6 0 34 -11 62 -24 28
-14 78 -34 111 -44 33 -11 80 -27 104 -36 32 -13 62 -15 118 -11 94 7 140 26
216 87 33 26 63 48 67 48 12 0 92 113 112 158 22 49 51 54 56 10 6 -53 -70
-163 -154 -224 -95 -68 -83 -111 33 -121 148 -12 273 30 378 129 100 93 136
154 161 276 20 94 21 109 9 166 -8 35 -28 99 -46 142 -48 117 -102 165 -275
252 -194 97 -512 213 -645 236 -41 7 -71 33 -48 40 8 3 77 12 154 22 77 9 154
22 170 30 17 7 57 20 90 29 114 32 260 128 392 259 40 39 78 85 84 101 7 17
20 37 30 45 29 24 126 232 175 373 74 217 91 422 53 635 -38 210 -86 327 -216
526 -215 330 -671 819 -1063 1141 -200 165 -465 363 -540 405 -34 19 -81 51
-104 71 -22 20 -68 53 -101 73 -33 21 -78 55 -100 76 -22 20 -98 77 -170 127
-71 49 -189 138 -260 198 -228 192 -630 499 -685 522 -33 14 -76 49 -180 147
-25 23 -115 103 -200 177 -197 172 -450 437 -523 549 -31 47 -80 120 -111 164
-72 102 -90 157 -91 271 0 135 19 186 106 279 59 63 86 83 155 116 80 38 90
40 182 41 116 2 123 -1 460 -169 99 -50 151 -98 312 -287 41 -48 85 -97 96
-109 12 -11 38 -61 59 -110 l39 -89 -13 -71 c-23 -129 -24 -156 -6 -289 16
-125 20 -138 70 -233 32 -62 70 -118 97 -143 54 -52 318 -231 341 -231 10 0
34 -11 55 -24 32 -20 41 -34 55 -82 9 -33 21 -99 27 -149 16 -139 53 -273 101
-361 51 -95 74 -122 116 -140 49 -21 59 -17 77 26 21 54 20 69 -8 122 -13 25
-36 102 -50 172 -21 104 -23 131 -14 152 12 25 14 21 35 -62 12 -49 23 -108
23 -131 0 -30 11 -60 37 -105 56 -97 113 -168 134 -168 11 0 19 -7 19 -15 0
-26 148 -173 181 -180 35 -8 74 14 91 50 18 39 1 88 -69 202 -36 59 -76 126
-89 148 -30 52 -105 332 -98 362 15 59 114 -2 207 -127 57 -76 177 -209 196
-215 9 -3 41 -39 70 -80 30 -41 60 -75 66 -75 6 0 45 -34 87 -75 42 -41 83
-75 91 -75 7 0 76 -64 153 -142 216 -219 221 -224 302 -274 43 -26 116 -74
163 -105 68 -45 100 -60 150 -69 109 -20 170 1 264 91 28 26 77 69 111 96 68
54 114 104 137 148 52 103 19 175 -94 205 -86 23 -257 102 -474 219 -200 108
-236 132 -390 257 -169 136 -244 215 -343 356 -24 35 -39 64 -33 66 13 4 154
-80 199 -120 19 -16 47 -31 63 -35 16 -3 34 -14 39 -23 5 -10 31 -34 57 -54
67 -50 118 -91 209 -166 142 -116 257 -200 276 -200 10 0 18 -4 18 -10 0 -12
59 -50 161 -104 42 -23 105 -61 140 -85 35 -25 110 -67 167 -94 95 -45 109
-49 161 -45 46 3 70 12 113 41 31 20 58 43 61 51 3 8 32 34 64 57 71 52 78 61
98 121 9 26 41 85 71 130 54 83 54 83 54 163 0 102 -18 136 -87 160 -26 9 -85
32 -130 51 -45 19 -106 39 -135 45 -29 5 -100 30 -158 54 -58 24 -135 55 -171
68 -36 14 -104 49 -150 78 -46 29 -124 71 -174 94 -107 50 -353 201 -480 295
-49 37 -130 106 -180 154 -49 48 -119 110 -153 139 -35 28 -83 79 -107 112
-58 81 -115 132 -165 145 -54 15 -91 6 -125 -30 -48 -50 -93 -35 -146 48 -31
50 -36 71 -17 90 13 13 44 0 68 -29 35 -43 148 24 152 89 5 95 -4 121 -71 203
-53 64 -61 80 -71 138 -6 36 -20 85 -31 108 -40 84 -160 169 -264 187 -97 17
-112 25 -138 69 -14 24 -35 74 -47 112 -12 39 -36 106 -53 150 -52 134 -285
571 -386 725 -82 124 -103 148 -141 168 -50 25 -82 27 -125 8z"/>
<path d="M5975 12612 c-17 -10 -39 -35 -50 -55 -17 -33 -18 -41 -7 -84 23 -86
57 -148 101 -182 24 -19 53 -50 65 -70 19 -30 45 -46 142 -91 66 -30 188 -90
272 -133 132 -67 157 -77 187 -71 67 12 69 47 8 143 -20 31 -68 94 -108 141
-39 47 -89 108 -111 137 -59 79 -224 207 -314 244 -96 41 -145 46 -185 21z"/>
<path d="M10436 7969 c-75 -18 -179 -81 -251 -154 -127 -127 -139 -151 -206
-421 -33 -132 -66 -261 -74 -289 -8 -27 -25 -88 -38 -135 -13 -47 -34 -110
-46 -139 -12 -30 -26 -76 -31 -101 -14 -72 -101 -300 -174 -453 -60 -126 -171
-322 -202 -356 -14 -16 1 -71 19 -71 48 2 139 94 251 255 24 36 238 378 274
440 19 33 49 76 67 95 17 19 47 62 66 94 19 33 75 101 124 151 74 75 106 99
177 135 81 40 90 42 142 36 74 -8 146 -36 193 -75 21 -17 43 -31 50 -31 7 0
13 -6 13 -12 0 -7 14 -33 30 -57 17 -24 30 -52 30 -61 0 -10 7 -31 15 -46 8
-16 20 -55 26 -86 10 -50 14 -56 29 -48 10 5 21 17 24 26 13 34 46 261 46 318
0 133 -70 293 -175 400 -74 74 -123 100 -244 131 l-86 22 31 16 c45 23 123 31
185 18 70 -15 178 -77 204 -118 11 -18 28 -32 38 -33 10 0 17 -8 17 -20 0 -31
28 -80 46 -80 23 0 34 44 34 138 0 168 -50 291 -157 393 -98 94 -188 129 -323
128 -47 -1 -102 -5 -124 -10z"/>
<path d="M575 5860 c-145 -29 -277 -100 -386 -209 -95 -95 -124 -141 -160
-255 -34 -109 -36 -171 -8 -262 38 -122 67 -175 164 -290 96 -114 96 -114 140
-114 l45 0 -25 56 c-22 49 -25 71 -25 168 0 111 0 113 36 172 54 90 109 141
199 185 88 42 147 58 213 59 l44 0 -87 -92 c-73 -78 -96 -110 -136 -195 l-49
-102 0 -131 c0 -118 3 -138 30 -216 36 -105 97 -191 219 -306 94 -90 173 -148
202 -148 9 0 19 -7 23 -15 6 -16 35 -19 73 -9 23 6 23 7 -11 53 -113 155 -149
328 -96 466 34 88 122 173 215 207 39 14 91 31 118 37 68 16 247 14 363 -5 54
-8 133 -19 175 -24 41 -4 109 -20 150 -35 41 -14 100 -32 131 -40 31 -7 125
-35 210 -63 84 -28 259 -78 388 -112 625 -165 601 -160 689 -160 89 0 99 5
121 57 21 51 -15 76 -147 103 -121 25 -334 99 -416 144 -34 19 -89 42 -122 51
-65 18 -329 147 -465 228 -47 27 -148 83 -225 125 -77 41 -194 109 -260 152
-66 42 -159 100 -206 128 -47 28 -173 110 -280 182 -215 145 -282 174 -472
204 -101 17 -303 20 -372 6z"/>
</g>
</svg>
