<?xml version="1.0" encoding="UTF-8"?><svg width="24px" height="24px" viewBox="0 0 24 24" version="1.1" xmlns="http://www.w3.org/2000/svg" xmlns:xlink="http://www.w3.org/1999/xlink">    <title>Public/ic_public_home_filled</title>    <defs>        <path d="M12.5548977,4.55117487 L12.6529233,4.62758192 L12.6883166,4.65995815 L21,12.5839983 L21,19.25 C21,20.8476809 19.75108,22.1536609 18.1762728,22.2449073 L18,22.25 L6,22.25 C4.40231912,22.25 3.09633912,21.00108 3.00509269,19.4262728 L3,19.25 L3,12.5839983 L11.3117958,4.65995815 C11.6576006,4.33188693 12.1809818,4.29723756 12.5548977,4.55117487 Z M12,13.5 C10.4023191,13.5 9.09633912,14.74892 9.00509269,16.3237272 L9,16.5 L9,20.25 L15,20.25 L15,16.5 C15,14.8431458 13.6568542,13.5 12,13.5 Z M9.39893803,2.34618127 C10.9454248,1.02063659 13.259436,1.06634502 14.75299,2.48330658 L14.75299,2.48330658 L22.4382087,9.7744115 L22.5181827,9.85955793 C22.8392264,10.243763 22.8283766,10.8160918 22.475412,11.1881356 C22.0952963,11.5887982 21.4623504,11.6054546 21.0616879,11.2253389 L21.0616879,11.2253389 L13.3764692,3.93423398 L13.2633454,3.83462897 C12.4905831,3.20379726 11.3583509,3.23699892 10.6234274,3.93423398 L10.6234274,3.93423398 L2.93820874,11.2253389 L2.84897391,11.3007239 C2.44841532,11.6011159 1.87744922,11.5601794 1.52448461,11.1881356 C1.14436887,10.7874731 1.16102534,10.1545272 1.56168788,9.7744115 L1.56168788,9.7744115 L9.24690658,2.48330658 Z" id="path-1"></path>    </defs>    <g id="Public/ic_public_home_filled" stroke="none" stroke-width="1" fill="none" fill-rule="evenodd">        <mask id="mask-2" fill="white">            <use xlink:href="#path-1"></use>        </mask>        <use id="形状结合" fill="#000000" fill-rule="nonzero" xlink:href="#path-1"></use>    </g></svg>