<?xml version="1.0" encoding="UTF-8"?><svg width="24px" height="24px" viewBox="0 0 24 24" version="1.1" xmlns="http://www.w3.org/2000/svg" xmlns:xlink="http://www.w3.org/1999/xlink">    <title>Public/ic_public_notes_filled</title>    <defs>        <path d="M15.8722296,1 C17.6173301,1 18.2738114,1.17783521 18.91208,1.51223497 L18.9536914,1.53426541 C19.5745027,1.86627892 20.0680807,2.34610464 20.4148264,2.9541436 L20.4657346,3.04630859 C20.8143488,3.69816044 21,4.34473292 21,6.1277704 L21,17.8722296 L20.9989932,18.0937657 C20.9842401,19.674381 20.8076257,20.3015622 20.487765,20.91208 L20.4657346,20.9536914 C20.1337211,21.5745027 19.6538954,22.0680807 19.0458564,22.4148264 L18.9536914,22.4657346 C18.3018396,22.8143488 17.6552671,23 15.8722296,23 L8.1277704,23 L7.90623426,22.9989932 C6.32561899,22.9842401 5.69843783,22.8076257 5.08791999,22.487765 L5.04630859,22.4657346 C4.42549731,22.1337211 3.93191931,21.6538954 3.58517358,21.0458564 L3.53426541,20.9536914 C3.18565122,20.3018396 3,19.6552671 3,17.8722296 L3,6.1277704 C3,4.38266989 3.17783521,3.72618864 3.51223497,3.08791999 L3.53426541,3.04630859 C3.86627892,2.42549731 4.34610464,1.93191931 4.9541436,1.58517358 L5.04630859,1.53426541 C5.69816044,1.18565122 6.34473292,1 8.1277704,1 L15.8722296,1 Z M12,16.25 L7.5,16.25 C7.08578644,16.25 6.75,16.5857864 6.75,17 C6.75,17.4142136 7.08578644,17.75 7.5,17.75 L7.5,17.75 L12,17.75 C12.4142136,17.75 12.75,17.4142136 12.75,17 C12.75,16.5857864 12.4142136,16.25 12,16.25 L12,16.25 Z M16.5,11.25 L7.5,11.25 C7.08578644,11.25 6.75,11.5857864 6.75,12 C6.75,12.4142136 7.08578644,12.75 7.5,12.75 L7.5,12.75 L16.5,12.75 C16.9142136,12.75 17.25,12.4142136 17.25,12 C17.25,11.5857864 16.9142136,11.25 16.5,11.25 L16.5,11.25 Z M16.5,6.25 L7.5,6.25 C7.08578644,6.25 6.75,6.58578644 6.75,7 C6.75,7.41421356 7.08578644,7.75 7.5,7.75 L7.5,7.75 L16.5,7.75 C16.9142136,7.75 17.25,7.41421356 17.25,7 C17.25,6.58578644 16.9142136,6.25 16.5,6.25 L16.5,6.25 Z" id="path-1"></path>    </defs>    <g id="Public/ic_public_notes_filled" stroke="none" stroke-width="1" fill="none" fill-rule="evenodd">        <mask id="mask-2" fill="white">            <use xlink:href="#path-1"></use>        </mask>        <use id="形状结合" fill="#000000" xlink:href="#path-1"></use>    </g></svg>