<?xml version="1.0" standalone="no"?>
<svg xmlns="http://www.w3.org/2000/svg" width="24" height="24"><rect width="24" height="24" opacity="0"></rect><g><path d="M22.32 18Q21.89 17.18 21.1 16.57Q20.3 15.96 18.96 15.38Q18.17 15.07 17.08 14.47Q15.98 13.87 15.43 13.37L16.32 11.47Q17.35 10.8 17.83 9.26Q18.12 8.45 17.99 7.92Q17.86 7.39 17.57 6.96L17.57 6.96L17.54 6.41Q17.5 5.35 17.38 4.7Q17.26 4.06 16.82 3.36Q15.98 1.97 14.65 1.58Q13.32 1.2 12 1.2Q10.68 1.2 9.35 1.58Q8.02 1.97 7.18 3.36Q6.72 4.13 6.6 4.92Q6.48 5.71 6.48 6.89L6.38 7.03Q6.12 7.46 6.02 7.99Q5.93 8.52 6.17 9.26Q6.46 10.13 6.88 10.66Q7.3 11.18 7.68 11.45L7.7 11.47Q7.92 11.86 8.11 12.26L8.64 13.32Q7.73 14.04 6.88 14.51Q6.02 14.98 5.11 15.36L5.06 15.38Q3.7 15.96 2.9 16.57Q2.11 17.18 1.68 18Q1.37 18.6 1.31 19.28Q1.25 19.97 1.5 20.57Q1.75 21.17 2.33 21.53Q3.74 22.37 6.61 22.6Q9.48 22.82 12 22.8L12.12 22.8Q15.07 22.8 17.71 22.56Q20.35 22.32 21.7 21.5Q22.27 21.14 22.52 20.54Q22.78 19.94 22.72 19.26Q22.66 18.58 22.32 18ZM20.88 20.23Q19.73 20.95 15.86 21.22Q12 21.48 8.12 21.2Q4.25 20.93 3.1 20.23Q2.78 20.04 2.77 19.56Q2.76 19.08 2.98 18.72Q3.29 18.14 3.9 17.69Q4.51 17.23 5.64 16.75Q8.02 15.77 9.53 14.52Q10.06 14.09 10.14 13.56Q10.22 13.03 9.86 12.46L8.93 10.63Q8.86 10.46 8.74 10.37Q8.62 10.27 8.52 10.22Q8.26 10.08 8 9.72Q7.75 9.36 7.58 8.81Q7.46 8.45 7.49 8.26Q7.51 8.06 7.63 7.87L7.68 7.8L7.82 7.54Q7.92 7.39 7.94 7.26Q7.97 7.13 7.97 6.6L7.97 6.53Q7.97 5.83 8.05 5.26Q8.14 4.68 8.47 4.13Q8.93 3.38 9.78 3.04Q10.63 2.69 12 2.69Q13.37 2.69 14.22 3.04Q15.07 3.38 15.53 4.13Q15.86 4.7 15.95 5.3Q16.03 5.9 16.03 6.6Q16.03 6.67 16.03 6.7Q16.03 6.72 16.03 6.79Q16.03 7.15 16.08 7.32Q16.13 7.49 16.32 7.8L16.37 7.85Q16.49 8.06 16.51 8.24Q16.54 8.42 16.42 8.81Q16.25 9.36 15.98 9.72Q15.72 10.08 15.48 10.22Q15.19 10.39 15.1 10.58L15.05 10.66L14.11 12.46Q13.75 13.08 13.84 13.58Q13.92 14.09 14.47 14.54Q15.29 15.22 16.1 15.66Q16.92 16.1 18.26 16.73Q18.31 16.75 18.36 16.78Q19.49 17.26 20.09 17.7Q20.69 18.14 21 18.72Q21.22 19.13 21.22 19.58Q21.22 20.04 20.88 20.23Z" fill="rgba(0,0,0,0.9019607843137255)"></path></g></svg>