<?xml version="1.0" encoding="UTF-8"?>
<svg width="24px" height="24px" viewBox="0 0 24 24" version="1.1" xmlns="http://www.w3.org/2000/svg" xmlns:xlink="http://www.w3.org/1999/xlink">
    <title>ic_gallery_public_details 5</title>
    <defs>
        <path d="M5.674,7.679 L6.78595343,18.5174157 C6.90018986,19.6315734 7.84517617,20.4851453 8.9858098,20.5175629 L9.05312677,20.5185185 L15.1992185,20.5185185 C16.347534,20.5185185 17.3125298,19.6860159 17.4588037,18.5820105 L17.4664589,18.5167601 L18.3973834,9.4101119 L18.576,7.679 L20.103,7.679 L19.9087674,9.55815247 L18.9779526,18.6637359 C18.7871238,20.5304958 17.1969891,21.958695 15.2826515,21.9991198 L15.1992185,22 L9.05312677,22 C7.13004269,22 5.51536915,20.5990695 5.28370227,18.7456924 L5.27450453,18.6648286 L4.148,7.679 L5.674,7.679 Z M10.3544304,11.8765432 C10.7738872,11.8765432 11.1139241,12.2165801 11.1139241,12.6360369 L11.1139241,18.5244569 C11.1139241,18.9439137 10.7738872,19.2839506 10.3544304,19.2839506 C9.93497361,19.2839506 9.59493671,18.9439137 9.59493671,18.5244569 L9.59493671,12.6360369 C9.59493671,12.2165801 9.93497361,11.8765432 10.3544304,11.8765432 Z M13.8987342,11.8765432 C14.3181909,11.8765432 14.6582278,12.2165801 14.6582278,12.6360369 L14.6582278,18.5244569 C14.6582278,18.9439137 14.3181909,19.2839506 13.8987342,19.2839506 C13.4792774,19.2839506 13.1392405,18.9439137 13.1392405,18.5244569 L13.1392405,12.6360369 C13.1392405,12.2165801 13.4792774,11.8765432 13.8987342,11.8765432 Z M12.1265823,2 C13.9182619,2 15.3755515,3.39634366 15.4168227,5.13410958 L15.4177215,5.20987654 L21.2405063,5.20987654 C21.6599631,5.20987654 22,5.54151747 22,5.95061728 C22,6.34510639 21.6838177,6.66757059 21.2851324,6.69010057 L21.2405063,6.69135802 L14.6582278,6.69135802 C14.2537517,6.69135802 13.9231238,6.38298272 13.9000235,5.99414143 L13.8987342,5.95061728 L13.8987342,5.20987654 C13.8987342,4.25531031 13.1053147,3.48148148 12.1265823,3.48148148 C11.1682401,3.48148148 10.38757,4.2234033 10.355458,5.15045685 L10.3544304,5.20987654 L10.3544304,5.95061728 C10.3544304,6.34510639 10.0382481,6.66757059 9.63956273,6.69010057 L9.59493671,6.69135802 L2.75949367,6.69135802 C2.3400369,6.69135802 2,6.3597171 2,5.95061728 C2,5.55612818 2.31618227,5.23366398 2.71486765,5.211134 L2.75949367,5.20987654 L8.83544304,5.20987654 C8.83544304,3.43711068 10.3089363,2 12.1265823,2 Z" id="path-1"></path>
    </defs>
    <g id="页面-1" stroke="none" stroke-width="1" fill="none" fill-rule="evenodd">
        <g id="图标" transform="translate(-76.000000, -236.000000)">
            <g id="编组-7" transform="translate(76.000000, 236.000000)">
                <g id="ic/gallery/public/details">
                    <mask id="mask-2" fill="white">
                        <use xlink:href="#path-1"></use>
                    </mask>
                    <use id="形状结合" fill="#000000" fill-rule="nonzero" xlink:href="#path-1"></use>
                    <g id="编组" mask="url(#mask-2)" fill="#000000">
                        <g id="color/#000000">
                            <rect x="0" y="0" width="24" height="24"></rect>
                        </g>
                    </g>
                </g>
                <rect id="矩形" x="0" y="0" width="24" height="24"></rect>
            </g>
        </g>
    </g>
</svg>