<?xml version="1.0" encoding="UTF-8"?>
<svg width="24px" height="24px" viewBox="0 0 24 24" version="1.1" xmlns="http://www.w3.org/2000/svg" xmlns:xlink="http://www.w3.org/1999/xlink">
    <title>ic_gallery_public_details 4</title>
    <defs>
        <path d="M18,2 C18.3582388,2 18.7054782,2.0470935 19.0358653,2.13542737 L17.671,3.5 L6,3.5 C4.64269002,3.5 3.53801707,4.5816677 3.50096045,5.93002379 L3.5,18 C3.5,19.35731 4.5816677,20.4619829 5.93002379,20.4990396 L18,20.5 C19.35731,20.5 20.4619829,19.4183323 20.4990396,18.0699762 L20.5,6.328 L21.8648402,4.9651359 C21.9530016,5.29522327 22,5.6421231 22,6 L22,18 C22,20.209139 20.209139,22 18,22 L6,22 C3.790861,22 2,20.209139 2,18 L2,6 C2,3.790861 3.790861,2 6,2 L18,2 Z M22.6568542,1.34710678 C23.0473785,1.73763107 23.0473785,2.37079605 22.6568542,2.76132034 L12.7573593,12.6608153 C12.366835,13.0513396 11.73367,13.0513396 11.3431458,12.6608153 C10.9526215,12.270291 10.9526215,11.637126 11.3431458,11.2466017 L21.2426407,1.34710678 C21.633165,0.956582489 22.26633,0.956582489 22.6568542,1.34710678 Z" id="path-1"></path>
    </defs>
    <g id="页面-1" stroke="none" stroke-width="1" fill="none" fill-rule="evenodd">
        <g id="图标" transform="translate(-76.000000, -200.000000)">
            <g id="编组-5" transform="translate(76.000000, 200.000000)">
                <rect id="矩形" x="0" y="0" width="24" height="24"></rect>
                <g id="ic/gallery/public/details">
                    <mask id="mask-2" fill="white">
                        <use xlink:href="#path-1"></use>
                    </mask>
                    <use id="形状" fill="#000000" fill-rule="nonzero" xlink:href="#path-1"></use>
                    <g id="编组" mask="url(#mask-2)" fill="#000000">
                        <g id="color/#000000">
                            <rect x="0" y="0" width="24" height="24"></rect>
                        </g>
                    </g>
                </g>
            </g>
        </g>
    </g>
</svg>