<?xml version="1.0" encoding="UTF-8"?>
<svg width="24px" height="24px" viewBox="0 0 24 24" version="1.1" xmlns="http://www.w3.org/2000/svg" xmlns:xlink="http://www.w3.org/1999/xlink">
    <title>Public/ic_public_more</title>
    <defs>
        <path d="M6.25,8 C7.21649831,8 8,7.21649831 8,6.25 C8,5.28350169 7.21649831,4.5 6.25,4.5 C5.28350169,4.5 4.5,5.28350169 4.5,6.25 C4.5,7.21649831 5.28350169,8 6.25,8 Z M6.25,19.5 C7.21649831,19.5 8,18.7164983 8,17.75 C8,16.7835017 7.21649831,16 6.25,16 C5.28350169,16 4.5,16.7835017 4.5,17.75 C4.5,18.7164983 5.28350169,19.5 6.25,19.5 Z M17.75,19.5 C18.7164983,19.5 19.5,18.7164983 19.5,17.75 C19.5,16.7835017 18.7164983,16 17.75,16 C16.7835017,16 16,16.7835017 16,17.75 C16,18.7164983 16.7835017,19.5 17.75,19.5 Z M17.75,8 C18.7164983,8 19.5,7.21649831 19.5,6.25 C19.5,5.28350169 18.7164983,4.5 17.75,4.5 C16.7835017,4.5 16,5.28350169 16,6.25 C16,7.21649831 16.7835017,8 17.75,8 Z" id="path-1"></path>
    </defs>
    <g id="Public/ic_public_more" stroke="none" stroke-width="1" fill="none" fill-rule="evenodd">
        <mask id="mask-2" fill="white">
            <use xlink:href="#path-1"></use>
        </mask>
        <g id="形状结合"></g>
        <g id="编组" mask="url(#mask-2)" fill="#000000" fill-opacity="0.9">
            <g id="color/#000000">
                <rect x="0" y="0" width="24" height="24"></rect>
            </g>
        </g>
    </g>
</svg>