<?xml version="1.0" encoding="UTF-8"?>
<svg width="24px" height="24px" viewBox="0 0 24 24" version="1.1" xmlns="http://www.w3.org/2000/svg" xmlns:xlink="http://www.w3.org/1999/xlink">
    <title>Public/ic_public_favor</title>
    <defs>
        <path d="M2.79452153,4.7123106 C5.14551849,2.36131365 8.79928584,2.107094 11.432027,3.94965165 C11.7516058,4.17462816 12.0562133,4.42806087 12.3404631,4.7123106 L12.2043753,4.58084491 C12.2233722,4.59824909 12.242503,4.61626317 12.2617634,4.63489833 L12.3404631,4.7123106 C12.4463878,4.81823529 12.5489662,4.9211352 12.648204,5.02101694 C12.8006003,5.17431629 12.9510582,5.32642644 13.0993468,5.47711379 L13.2191159,5.60002561 C13.6770026,6.06850208 14.0393959,6.45079635 14.3071512,6.74792182 C14.5844414,7.05562795 14.5597843,7.52986111 14.2520782,7.80715123 C13.9443721,8.08444136 13.4701389,8.05978431 13.1928488,7.75207818 L13.0507824,7.59620087 C12.6483435,7.15907177 12.0572399,6.55040776 11.2798029,5.77297077 L11.1010067,5.60225587 C9.04064077,3.72439192 5.84685559,3.78129689 3.8551817,5.77297077 C1.92651003,7.70164245 2.0120054,10.7789756 3.90277368,13.3 C4.53008781,14.1364188 5.51152739,15.2077248 6.77873984,16.4381266 L6.77873984,16.4381266 L6.81870427,16.4767845 C7.40284236,17.0397797 8.47345885,17.9853684 10.0244732,19.3076065 L10.0244732,19.3076065 L11.0614453,20.1872947 C11.6195629,20.6586926 12.4361195,20.6594461 12.9949572,20.1892045 L12.9949572,20.1892045 L13.9427905,19.3880425 C15.4712291,18.089643 16.5394672,17.1471153 17.1420446,16.5658605 L17.1420446,16.5658605 L17.4041204,16.3113955 C18.6081005,15.1345125 19.5440439,14.1079415 20.15,13.3 C22.0407683,10.7789756 22.1262637,7.70164245 20.197592,5.77297077 C18.5002127,4.07559151 15.9297294,3.783452 13.9318066,4.89655225 C13.6450802,4.60532736 13.3503168,4.30795075 13.0475699,4.00520382 C12.9789659,3.93659986 12.9093438,3.8695609 12.8387502,3.80408714 C15.4505548,2.12241169 18.9709638,2.42502225 21.2582521,4.7123106 C23.7644258,7.21848428 23.6558802,11.1254931 21.35,14.2 L21.35,14.2 L21.2782836,14.2947342 C20.5730317,15.2179162 19.5206923,16.355509 18.1834318,17.6454496 L18.1834318,17.6454496 L18.1355571,17.6914643 C17.4696453,18.3292759 16.3271085,19.333852 14.702026,20.7110339 L14.702026,20.7110339 L13.960879,21.3368085 C12.8429053,22.2775429 11.2097915,22.2760359 10.0935559,21.3332398 C7.99068585,19.5571115 6.56921236,18.3148051 5.81899059,17.5964036 L5.81899059,17.5964036 L5.59843695,17.3824031 C4.34444158,16.1565572 3.3607736,15.0773332 2.70277368,14.2 C0.396893522,11.1254931 0.288347854,7.21848428 2.79452153,4.7123106 Z" id="path-1"></path>
    </defs>
    <g id="Public/ic_public_favor" stroke="none" stroke-width="1" fill="none" fill-rule="evenodd">
        <mask id="mask-2" fill="white">
            <use xlink:href="#path-1"></use>
        </mask>
        <g id="蒙版" fill-rule="nonzero"></g>
        <g id="编组" mask="url(#mask-2)" fill="#000000" fill-opacity="0.9">
            <g id="color/#000000">
                <rect x="0" y="0" width="24" height="24"></rect>
            </g>
        </g>
    </g>
</svg>