<?xml version="1.0" standalone="no"?>
<svg xmlns="http://www.w3.org/2000/svg" width="24" height="24"><rect width="24" height="24" opacity="0"></rect><g><path d="M12.02 9Q12.84 9 13.52 9.41Q14.21 9.82 14.6 10.51Q15 11.21 15 12.02Q15 12.84 14.6 13.52Q14.21 14.21 13.52 14.6Q12.84 15 12 15Q11.18 15 10.49 14.59Q9.79 14.18 9.4 13.49Q9 12.79 9 11.98Q9 11.16 9.41 10.48Q9.82 9.79 10.51 9.4Q11.21 9 12.02 9ZM12.05 7.51Q10.82 7.51 9.78 8.11Q8.74 8.71 8.12 9.73Q7.51 10.75 7.51 11.98Q7.51 13.2 8.11 14.24Q8.71 15.29 9.74 15.9Q10.78 16.51 12 16.51Q13.22 16.51 14.26 15.91Q15.29 15.31 15.9 14.28Q16.51 13.25 16.51 12.02Q16.51 10.8 15.91 9.77Q15.31 8.74 14.29 8.12Q13.27 7.51 12.05 7.51ZM13.56 22.66Q14.02 22.66 14.4 22.4Q14.78 22.15 14.98 21.74L15.79 19.85L15.98 19.75Q16.42 19.49 16.85 19.22L18.91 19.49Q19.39 19.54 19.8 19.33Q20.21 19.13 20.45 18.72L22.03 15.98Q22.27 15.58 22.24 15.12Q22.2 14.66 21.94 14.28L20.69 12.6L20.69 11.42L21.94 9.74Q22.22 9.36 22.25 8.9Q22.27 8.45 22.03 8.04L20.45 5.28Q20.23 4.9 19.82 4.68Q19.42 4.46 18.94 4.51L16.85 4.78Q16.42 4.46 15.86 4.2L15.02 2.23Q14.83 1.82 14.45 1.56Q14.06 1.3 13.61 1.3L10.44 1.3Q9.98 1.3 9.59 1.56Q9.19 1.82 9 2.23L8.16 4.2L7.92 4.34Q7.73 4.44 7.55 4.54Q7.37 4.63 7.2 4.75L5.09 4.51Q4.63 4.44 4.21 4.64Q3.79 4.85 3.55 5.26L1.97 8.02Q1.73 8.4 1.76 8.87Q1.8 9.34 2.06 9.72L3.34 11.42L3.34 12.53L2.06 14.23Q1.78 14.62 1.75 15.07Q1.73 15.53 1.97 15.94L3.53 18.67Q3.77 19.08 4.18 19.28Q4.58 19.49 5.06 19.44L7.13 19.2Q7.8 19.63 8.14 19.8L8.98 21.72Q9.14 22.15 9.53 22.4Q9.91 22.66 10.39 22.66L13.56 22.66ZM7.08 17.66L4.8 17.9L3.22 15.1L4.58 13.27Q4.8 12.94 4.8 12.6Q4.78 12.31 4.78 11.95Q4.78 11.59 4.8 11.3Q4.8 10.92 4.58 10.61L3.22 8.74L4.85 5.95L7.15 6.24Q7.37 6.26 7.55 6.22Q7.73 6.17 7.87 6.07Q8.3 5.76 8.93 5.47Q9.29 5.28 9.43 4.94L10.39 2.78L13.61 2.81L14.52 4.94Q14.64 5.26 15.02 5.47Q15.55 5.71 16.1 6.1Q16.46 6.34 16.82 6.26L19.13 6.02L20.71 8.83L19.37 10.63Q19.1 10.92 19.15 11.33Q19.18 11.64 19.18 12.01Q19.18 12.38 19.15 12.67Q19.13 13.06 19.37 13.37L20.71 15.19L19.08 17.98L16.85 17.71Q16.66 17.69 16.46 17.72Q16.27 17.76 16.13 17.88Q15.6 18.26 15 18.53Q14.83 18.62 14.69 18.76Q14.54 18.89 14.47 19.06L13.56 21.14L10.34 21.12L9.46 19.03Q9.29 18.67 8.95 18.5Q8.47 18.29 7.85 17.88Q7.58 17.69 7.25 17.69Z" fill="rgba(0,0,0,0.9019607843137255)"></path></g></svg>