<?xml version="1.0" standalone="no"?>
<svg xmlns="http://www.w3.org/2000/svg" width="24" height="24"><rect width="24" height="24" opacity="0"></rect><g><path d="M19.99 12Q19.68 12 19.46 12.23Q19.25 12.46 19.25 12.77L19.25 19.99Q19.25 20.3 19.02 20.52Q18.79 20.74 18.48 20.74L15.72 20.74L15.72 16.44Q15.72 15.43 15.22 14.58Q14.71 13.73 13.86 13.22Q13.01 12.72 12 12.72Q10.97 12.72 10.12 13.22Q9.26 13.73 8.76 14.58Q8.26 15.43 8.26 16.44L8.26 20.74L5.47 20.74Q5.18 20.74 4.96 20.51Q4.73 20.28 4.73 19.97L4.73 12.77Q4.73 12.46 4.51 12.23Q4.3 12 3.98 12Q3.67 12 3.46 12.23Q3.24 12.46 3.24 12.77L3.24 19.97Q3.24 20.59 3.54 21.11Q3.84 21.62 4.36 21.92Q4.87 22.22 5.47 22.22L18.48 22.22Q19.08 22.22 19.6 21.92Q20.11 21.62 20.42 21.11Q20.74 20.59 20.74 19.99L20.74 12.77Q20.74 12.46 20.52 12.23Q20.3 12 19.99 12ZM9.77 16.44Q9.77 15.53 10.43 14.87Q11.09 14.21 12 14.21Q12.91 14.21 13.57 14.87Q14.23 15.53 14.23 16.44L14.23 20.74L9.77 20.74L9.77 16.44ZM22.54 11.45Q22.73 11.23 22.73 10.92Q22.73 10.61 22.51 10.39L14.45 2.76Q13.78 2.11 12.89 1.88Q12 1.66 11.11 1.88Q10.22 2.11 9.55 2.76L1.51 10.39Q1.27 10.61 1.27 10.92Q1.27 11.23 1.49 11.47Q1.68 11.66 2.02 11.68Q2.35 11.69 2.54 11.5L10.61 3.84Q11.21 3.26 12.01 3.26Q12.82 3.26 13.42 3.84L21.48 11.47Q21.7 11.69 22.01 11.69Q22.32 11.69 22.54 11.45Z" fill="rgba(0,0,0,0.9019607843137255)"></path></g></svg>