<?xml version="1.0" standalone="no"?>
<svg xmlns="http://www.w3.org/2000/svg" width="24" height="24"><rect width="24" height="24" opacity="0"></rect><g><path d="M9.91 12.89Q11.02 12.89 11.94 12.35Q12.86 11.81 13.42 10.88Q13.97 9.96 13.97 8.86Q13.97 7.75 13.42 6.83Q12.86 5.9 11.94 5.36Q11.02 4.82 9.91 4.82Q8.81 4.82 7.88 5.36Q6.96 5.9 6.42 6.83Q5.88 7.75 5.88 8.86Q5.88 9.96 6.42 10.88Q6.96 11.81 7.88 12.35Q8.81 12.89 9.91 12.89ZM9.91 6.31Q10.61 6.31 11.2 6.65Q11.78 6.98 12.12 7.57Q12.46 8.16 12.46 8.86Q12.46 9.55 12.12 10.13Q11.78 10.7 11.2 11.05Q10.61 11.4 9.91 11.4Q8.88 11.4 8.14 10.66Q7.39 9.91 7.39 8.86Q7.39 8.16 7.73 7.57Q8.06 6.98 8.64 6.65Q9.22 6.31 9.91 6.31ZM10.58 15.14Q11.88 15.14 13.19 15.8Q14.5 16.46 15.34 17.58Q16.18 18.7 16.18 19.99Q16.18 20.26 15.98 20.45Q15.79 20.64 15.53 20.64L4.3 20.64Q4.03 20.64 3.84 20.45Q3.65 20.26 3.65 19.99Q3.65 18.7 4.49 17.58Q5.33 16.46 6.64 15.8Q7.94 15.14 9.24 15.14L10.58 15.14ZM15.53 22.13Q16.42 22.13 17.05 21.5Q17.69 20.88 17.69 19.99Q17.69 18.26 16.63 16.8Q15.58 15.34 13.92 14.5Q12.26 13.66 10.58 13.66L9.26 13.66Q7.58 13.66 5.93 14.5Q4.27 15.34 3.22 16.8Q2.16 18.26 2.16 19.99Q2.16 20.88 2.78 21.5Q3.41 22.13 4.3 22.13L15.53 22.13Z" fill="rgba(0,0,0,0.9019607843137255)"></path><path d="M14.93 10.7Q14.76 11.11 14.54 11.5Q14.33 11.88 14.06 12.19L14.76 12.19Q16.06 12.19 17.36 12.84Q18.67 13.49 19.51 14.6Q20.35 15.72 20.35 17.04Q20.35 17.3 20.16 17.5Q19.97 17.69 19.7 17.69L18.53 17.69Q18.79 18.36 18.91 19.18L19.7 19.18Q20.59 19.18 21.22 18.55Q21.84 17.93 21.84 17.04Q21.84 15.34 20.82 13.9Q19.8 12.46 18.19 11.6Q16.58 10.75 14.93 10.7ZM12.29 4.1Q12.65 3.74 13.12 3.55Q13.58 3.36 14.09 3.36Q14.78 3.36 15.36 3.7Q15.94 4.03 16.28 4.62Q16.63 5.21 16.63 5.88Q16.63 6.62 16.24 7.24Q15.84 7.85 15.19 8.16L15.19 8.26Q15.26 8.83 15.26 9.11Q15.26 9.38 15.17 9.77Q16.01 9.53 16.68 8.96Q17.35 8.4 17.74 7.6Q18.12 6.79 18.12 5.88Q18.12 4.8 17.57 3.88Q17.02 2.95 16.09 2.41Q15.17 1.87 14.06 1.87Q13.06 1.87 12.18 2.34Q11.3 2.81 10.75 3.6Q11.4 3.72 11.88 3.91Q12.1 4.01 12.29 4.1Z" fill="rgba(0,0,0,0.9019607843137255)"></path></g></svg>