<?xml version="1.0" encoding="UTF-8"?>
<svg width="24px" height="24px" viewBox="0 0 24 24" version="1.1" xmlns="http://www.w3.org/2000/svg" xmlns:xlink="http://www.w3.org/1999/xlink">
    <title>icon_morebackup</title>
    <defs>
        <path d="M3.56230134,10.7499686 L9.53183365,16.7196699 L9.56557495,16.7556673 C9.82425824,17.0502619 9.81301114,17.4991526 9.53183365,17.7803301 C9.25065616,18.0615076 8.80176543,18.0727547 8.50717088,17.8140714 L8.47117348,17.7803301 L1.44080134,10.7499686 L3.56230134,10.7499686 Z M9.53183365,0.219669914 C9.81301114,0.500847404 9.82425824,0.949738137 9.56557495,1.24433269 L9.53183365,1.28033009 L2.56200357,8.25 L19.2515036,8.25 C19.6509238,8.25 19.9774188,8.56222999 20.0002304,8.9559318 L20.0015036,9 C20.0015036,9.39942022 19.6892736,9.72591522 19.2955718,9.74872683 L19.2515036,9.75 L0.751503566,9.75 C0.0975414948,9.75 -0.236909803,8.97615472 0.192107132,8.50027227 L0.22117348,8.46966991 L8.47117348,0.219669914 C8.7640667,-0.0732233047 9.23894043,-0.0732233047 9.53183365,0.219669914 Z" id="path-1"></path>
    </defs>
    <g id="icon_morebackup" stroke="none" stroke-width="1" fill="none" fill-rule="evenodd">
        <g id="ic_back" transform="translate(1.998496, 3.000000)">
            <mask id="mask-2" fill="white">
                <use xlink:href="#path-1"></use>
            </mask>
            <use id="shape" fill="#556B89" fill-rule="nonzero" xlink:href="#path-1"></use>
        </g>
    </g>
</svg>