<?xml version="1.0" encoding="UTF-8"?>
<svg width="30px" height="30px" viewBox="0 0 30 30" version="1.1" xmlns="http://www.w3.org/2000/svg" xmlns:xlink="http://www.w3.org/1999/xlink">
    <title>icon_collect</title>
    <g id="icon_collect" stroke="none" stroke-width="1" fill="none" fill-rule="evenodd">
        <path d="M14.3561678,6.06721925 L17.2110943,8.91936574 L17.2110943,8.91936574 C17.5772108,9.28548226 17.5772108,9.87907443 17.2110943,10.245191 C16.8449778,10.6113075 16.2513856,10.6113075 15.8852691,10.245191 C13.4747888,7.83358802 12.2695486,6.62778656 12.2695486,6.62778656 C10.0020643,5.06052656 7.88030224,5.96025663 6.46352634,7.193523 L6.27814663,7.36641389 L6.08583318,7.56643325 C4.28463417,9.52778175 4.45179628,12.4851337 6.45832782,15.338773 C7.65328517,17.0382117 10.2012634,19.6621302 14.0639057,23.1488555 L14.98375,23.9725263 L15.9421293,23.1092813 L16.8241722,22.3016746 C19.8295161,19.5293031 21.9753426,17.32746 23.2442441,15.7239772 L23.5697533,15.2999028 C25.6815942,12.4540517 25.7595158,9.40420554 23.7497884,7.39494366 C22.0558451,5.70139271 19.6219115,5.7199374 17.3942098,7.34034164 L16.0574951,6.00204481 C18.8833196,3.83831983 22.4818152,3.47592076 25.0754601,6.06896488 C27.9337231,8.92656583 27.5636147,13.0642936 25.0754601,16.4172533 C23.5648316,18.4529292 20.6414591,21.4164143 16.3053424,25.3077089 L15.8177237,25.7438771 C15.3449489,26.1654708 14.6315453,26.1667608 14.1572489,25.7468796 L13.2042219,24.8976928 L12.3296088,24.107704 C8.63402102,20.7458337 6.16566474,18.1823502 4.92453994,16.4172533 C2.64713167,13.1783799 2.06825635,9.16918293 4.70482582,6.29818893 L4.92453994,6.06896488 C4.92453994,6.06896488 4.92453994,6.06896488 4.92453994,6.06896488 C7.52899003,3.46511805 11.7507564,3.4643343 14.3561678,6.06721925 Z" id="path" fill="#556B89" fill-rule="nonzero"></path>
    </g>
</svg>