<?xml version="1.0" encoding="UTF-8"?>
<svg width="30px" height="30px" viewBox="0 0 30 30" version="1.1" xmlns="http://www.w3.org/2000/svg" xmlns:xlink="http://www.w3.org/1999/xlink">
    <title>icon_review</title>
    <defs>
        <path d="M19.375,3.75 C24.5526695,3.75 28.75,7.94733047 28.75,13.125 C28.75,18.2508928 24.6361964,22.4159554 19.5300328,22.498744 L19.375,22.5 L17.263125,22.5 L12.5379126,27.2254126 C12.1864407,27.5768845 11.6253273,27.5909433 11.2570841,27.2675892 L11.2120874,27.2254126 C10.8606155,26.8739407 10.8465567,26.3128273 11.1699108,25.9445841 L11.2120874,25.8995874 L16.2120874,20.8995874 C16.3732515,20.7384233 16.5870518,20.641997 16.8130824,20.6270452 L16.875,20.625 L19.375,20.625 C23.5171356,20.625 26.875,17.2671356 26.875,13.125 C26.875,9.02428573 23.5839571,5.69223571 19.4990262,5.62600479 L19.375,5.625 L10.625,5.625 C6.48286438,5.625 3.125,8.98286438 3.125,13.125 C3.125,17.2257143 6.41604288,20.5577643 10.5009738,20.6239952 L10.625,20.625 L11.5625,20.625 C12.080267,20.625 12.5,21.044733 12.5,21.5625 C12.5,22.0617753 12.1097125,22.469894 11.6175852,22.4984085 L11.5625,22.5 L10.625,22.5 C5.44733047,22.5 1.25,18.3026695 1.25,13.125 C1.25,7.99910717 5.36380359,3.83404464 10.4699672,3.75125598 L10.625,3.75 L19.375,3.75 Z M8.75,11.5625 C9.61294492,11.5625 10.3125,12.2620551 10.3125,13.125 C10.3125,13.9879449 9.61294492,14.6875 8.75,14.6875 C7.88705508,14.6875 7.1875,13.9879449 7.1875,13.125 C7.1875,12.2620551 7.88705508,11.5625 8.75,11.5625 Z M15,11.5625 C15.8629449,11.5625 16.5625,12.2620551 16.5625,13.125 C16.5625,13.9879449 15.8629449,14.6875 15,14.6875 C14.1370551,14.6875 13.4375,13.9879449 13.4375,13.125 C13.4375,12.2620551 14.1370551,11.5625 15,11.5625 Z M21.25,11.5625 C22.1129449,11.5625 22.8125,12.2620551 22.8125,13.125 C22.8125,13.9879449 22.1129449,14.6875 21.25,14.6875 C20.3870551,14.6875 19.6875,13.9879449 19.6875,13.125 C19.6875,12.2620551 20.3870551,11.5625 21.25,11.5625 Z" id="path-1"></path>
    </defs>
    <g id="icon_review" stroke="none" stroke-width="1" fill="none" fill-rule="evenodd">
        <mask id="mask-2" fill="white">
            <use xlink:href="#path-1"></use>
        </mask>
        <use id="shape" fill="#556B89" fill-rule="nonzero" xlink:href="#path-1"></use>
    </g>
</svg>