<?xml version="1.0" encoding="UTF-8"?>
<svg width="30px" height="30px" viewBox="0 0 30 30" version="1.1" xmlns="http://www.w3.org/2000/svg" xmlns:xlink="http://www.w3.org/1999/xlink">
    <title>icon_download</title>
    <g id="icon_download" stroke="none" stroke-width="1" fill="none" fill-rule="evenodd">
        <path d="M25.5989583,18.4375 C26.073578,18.4375 26.4583333,18.8222553 26.4583333,19.296875 L26.4583333,23.0208333 C26.4583333,24.9193122 24.9193122,26.4583333 23.0208333,26.4583333 L6.97916667,26.4583333 C5.08068784,26.4583333 3.54166667,24.9193122 3.54166667,23.0208333 L3.54166667,19.296875 C3.54166667,18.8222553 3.92642196,18.4375 4.40104167,18.4375 C4.87566137,18.4375 5.26041667,18.8222553 5.26041667,19.296875 L5.26041667,23.0208333 C5.26041667,23.9700727 6.02992725,24.7395833 6.97916667,24.7395833 L23.0208333,24.7395833 C23.9700727,24.7395833 24.7395833,23.9700727 24.7395833,23.0208333 L24.7395833,19.296875 C24.7395833,18.8222553 25.1243386,18.4375 25.5989583,18.4375 Z M15.7091658,3.7835377 C15.8386075,3.7835377 15.9435408,3.88847096 15.9435408,4.0179127 L15.943,18.4485377 L18.4116689,15.9815566 C18.7472757,15.6459498 19.2740253,15.6179826 19.6414892,15.8976549 L19.7374941,15.9815566 C20.073101,16.3171634 20.1010682,16.843913 19.8213959,17.2113769 L19.7374941,17.3073818 L15.2270116,21.8178643 C15.1049728,21.9399032 14.9071087,21.9399032 14.7850699,21.8178643 L10.2745874,17.3073818 C9.90847087,16.9412653 9.90847087,16.3476731 10.2745874,15.9815566 C10.6101942,15.6459498 11.1369437,15.6179826 11.5044077,15.8976549 L11.6004126,15.9815566 L14.068,18.4495377 L14.0685408,4.0179127 C14.0685408,3.88847096 14.173474,3.7835377 14.3029158,3.7835377 L15.7091658,3.7835377 Z" id="merge shape" fill="#556B89" fill-rule="nonzero"></path>
    </g>
</svg>