<?xml version="1.0" encoding="UTF-8"?>
<svg width="24px" height="24px" viewBox="0 0 24 24" version="1.1" xmlns="http://www.w3.org/2000/svg" xmlns:xlink="http://www.w3.org/1999/xlink">
    <title>ic_Music_list</title>
    <g id="ic_Music_list" stroke="none" stroke-width="1" fill="none" fill-rule="evenodd">
        <path d="M19.926502,4.70833333 C20.011212,5.70901835 19.7876947,6.3458535 19.2559501,6.6188388 C18.4583333,7.02831674 18.014982,6.22484292 18.0073461,8.33563106 C18.0064608,8.58036012 18.0057295,8.85646281 18.0051521,9.16393913 L18.0044015,9.64868383 L18.004,9.99133333 L18.0070885,9.99205047 L18.008837,17.2861636 C17.8861623,18.7019897 16.8440678,19.7858228 15.557115,20.0411984 C14.1863097,20.3132132 12.625,19.5685768 12.625,17.9885784 C12.625,16.4085801 14.0201082,15.7344466 14.7734257,15.4455656 C15.2070336,15.2792864 16.3404167,14.7806676 16.3404167,14.0258765 L16.344,12.4163333 L16.3411667,12.4163333 L16.347,11.1213333 L16.35,9.99193308 L16.353,9.99133333 L16.3683011,6.77656628 C16.372224,5.98480528 16.93265,5.30508781 17.7091454,5.15031158 L19.926502,4.70833333 Z M9.91666667,14.9166667 C10.4919633,14.9166667 10.9583333,15.3830367 10.9583333,15.9583333 C10.9583333,16.5336299 10.4919633,17 9.91666667,17 L4.70833333,17 C4.13303672,17 3.66666667,16.5336299 3.66666667,15.9583333 C3.66666667,15.3830367 4.13303672,14.9166667 4.70833333,14.9166667 L9.91666667,14.9166667 Z M13.0416667,9.5 C13.6169633,9.5 14.0833333,9.96637005 14.0833333,10.5416667 C14.0833333,11.1169633 13.6169633,11.5833333 13.0416667,11.5833333 L4.70833333,11.5833333 C4.13303672,11.5833333 3.66666667,11.1169633 3.66666667,10.5416667 C3.66666667,9.96637005 4.13303672,9.5 4.70833333,9.5 L13.0416667,9.5 Z M13.0416667,4.08333333 C13.6169633,4.08333333 14.0833333,4.54970339 14.0833333,5.125 C14.0833333,5.70029661 13.6169633,6.16666667 13.0416667,6.16666667 L4.70833333,6.16666667 C4.13303672,6.16666667 3.66666667,5.70029661 3.66666667,5.125 C3.66666667,4.54970339 4.13303672,4.08333333 4.70833333,4.08333333 L13.0416667,4.08333333 Z" id="shape" fill="#FF1949"></path>
    </g>
</svg>