<?xml version="1.0" encoding="UTF-8"?>
<svg width="24px" height="24px" viewBox="0 0 24 24" version="1.1" xmlns="http://www.w3.org/2000/svg" xmlns:xlink="http://www.w3.org/1999/xlink">
    <title>ic_next</title>
    <g id="mark" stroke="none" stroke-width="1" fill="none" fill-rule="evenodd">
        <g id="Phone" transform="translate(-281.000000, -744.000000)">
            <g id="ic_next" transform="translate(281.000000, 744.000000)">
                <rect id="rect" x="0" y="0" width="24" height="24"></rect>
                <g id="number-7" transform="translate(1.000000, 2.000000)">
                    <rect id="rect" x="0" y="0" width="20" height="20"></rect>
                    <path d="M16.5555556,3.05555556 C17.1666667,3.05555556 17.6666667,3.46316425 17.6666667,3.96135266 L17.6666667,16.0386473 C17.6666667,16.5036232 17.2311111,16.889694 16.6761811,16.9391036 L16.5555556,16.9444444 C15.9444444,16.9444444 15.4444444,16.5368357 15.4444444,16.0386473 L15.445065,10.7330231 C15.3890933,10.7963817 15.3260866,10.853097 15.2574074,10.901872 L15.2574074,10.901872 L15.2589506,10.9024758 L6.31080247,16.7373188 C6.1345679,16.866244 5.92037037,16.9444444 5.68641975,16.9444444 C5.09197531,16.9444444 4.61111111,16.4535024 4.61111111,15.848128 L4.61111111,15.848128 L4.61111111,4.15157005 C4.61111111,3.54649758 5.09197531,3.05555556 5.68641975,3.05555556 C5.92345679,3.05555556 6.09783951,3.13707729 6.31666667,3.26177536 L6.31666667,3.26177536 L15.2589506,9.09722222 C15.2580247,9.09812802 15.2574074,9.09903382 15.2574074,9.09903382 C15.3260991,9.14781764 15.3891163,9.20448997 15.4450956,9.26777994 L15.4444444,3.96135266 C15.4444444,3.46316425 15.9444444,3.05555556 16.5555556,3.05555556 Z" id="shape" fill="#FF1949"></path>
                </g>
            </g>
        </g>
    </g>
</svg>