<?xml version="1.0" encoding="UTF-8"?>
<svg width="24px" height="24px" viewBox="0 0 24 24" version="1.1" xmlns="http://www.w3.org/2000/svg" xmlns:xlink="http://www.w3.org/1999/xlink">
    <title>ic_order_play</title>
    <g id="ic_order_play" stroke="none" stroke-width="1" fill="none" fill-rule="evenodd" fill-opacity="0.6">
        <path d="M9.25355339,4.43396435 C9.34732158,4.52773253 9.4,4.65490949 9.4,4.78751774 L9.4,18.9607443 C9.4,19.3749579 9.06421356,19.7107443 8.65,19.7107443 C8.23578644,19.7107443 7.9,19.3749579 7.9,18.9607443 L7.89910678,7.37951774 L6.80710678,7.38041095 C6.53096441,7.38041095 6.30710678,7.15655333 6.30710678,6.88041095 C6.30710678,6.74780271 6.3597852,6.62062575 6.45355339,6.52685756 L8.54644661,4.43396435 C8.74170876,4.2387022 9.05829124,4.2387022 9.25355339,4.43396435 Z M15.3533333,4.30074435 C15.7675469,4.30074435 16.1033333,4.63653079 16.1033333,5.05074435 L16.1038932,16.6208932 L17.1928932,16.62 C17.4690356,16.62 17.6928932,16.8438576 17.6928932,17.12 C17.6928932,17.2526082 17.6402148,17.3797852 17.5464466,17.4735534 L15.4535534,19.5664466 C15.2582912,19.7617088 14.9417088,19.7617088 14.7464466,19.5664466 C14.6526784,19.4726784 14.6,19.3455015 14.6,19.2128932 L14.6,17.12 L14.6038932,17.0868932 L14.6033333,5.05074435 C14.6033333,4.63653079 14.9391198,4.30074435 15.3533333,4.30074435 Z" id="shape" fill="#000000"></path>
    </g>
</svg>