<?xml version="1.0" encoding="UTF-8"?>
<svg width="28px" height="28px" viewBox="0 0 28 28" version="1.1" xmlns="http://www.w3.org/2000/svg" xmlns:xlink="http://www.w3.org/1999/xlink">
    <title>icon_pause</title>
    <defs>
        <path d="M9.66666667,8.90028494 L9.66666667,19.0997151 C9.66666667,19.8360947 10.2636203,20.4330484 11,20.4330484 C11.2453397,20.4330484 11.4859228,20.3653565 11.6952667,20.2374242 L20.040255,15.1377091 C20.6685944,14.7537239 20.8666826,13.9330727 20.4826974,13.3047333 C20.3723993,13.1242455 20.2207428,12.972589 20.040255,12.8622909 L11.6952667,7.76257582 C11.0669273,7.37859064 10.2462761,7.57667886 9.86229089,8.20501826 C9.73435851,8.41436214 9.66666667,8.65494526 9.66666667,8.90028494 Z" id="path-1"></path>
    </defs>
    <g id="icon_pause" stroke="none" stroke-width="1" fill="none" fill-rule="evenodd">
        <path d="M14,1.76470588 C7.24263365,1.76470588 1.76470588,7.24263365 1.76470588,14 C1.76470588,20.7573664 7.24263365,26.2352941 14,26.2352941 C20.7573664,26.2352941 26.2352941,20.7573664 26.2352941,14 C26.2352941,7.24263365 20.7573664,1.76470588 14,1.76470588 Z M13.872549,3.80392157 C19.5740769,3.80392157 24.1960784,8.42592312 24.1960784,14.127451 C24.1960784,19.8289788 19.5740769,24.4509804 13.872549,24.4509804 C8.17102116,24.4509804 3.54901961,19.8289788 3.54901961,14.127451 C3.54901961,8.42592312 8.17102116,3.80392157 13.872549,3.80392157 Z" id="ellipse" fill-opacity="0.2" fill="#FF1949" fill-rule="nonzero"></path>
        <path d="M14,1.78431373 C20.7465372,1.78431373 26.2156863,7.25346276 26.2156863,14 C26.2156863,20.7465372 20.7465372,26.2156863 14,26.2156863 C7.25346276,26.2156863 1.78431373,20.7465372 1.78431373,14 C1.78431373,13.4477153 2.23202898,13 2.78431373,13 C3.33659848,13 3.78431373,13.4477153 3.78431373,14 C3.78431373,19.6419677 8.35803226,24.2156863 14,24.2156863 C19.6419677,24.2156863 24.2156863,19.6419677 24.2156863,14 C24.2156863,8.35803226 19.6419677,3.78431373 14,3.78431373 C13.4477153,3.78431373 13,3.33659848 13,2.78431373 C13,2.23202898 13.4477153,1.78431373 14,1.78431373 Z" id="path" fill="#FF1949" fill-rule="nonzero"></path>
        <mask id="mask-2" fill="white">
            <use xlink:href="#path-1"></use>
        </mask>
        <use id="Path-46" fill="#FF1949" xlink:href="#path-1"></use>
    </g>
</svg>