<?xml version="1.0" encoding="UTF-8"?>
<svg width="24px" height="24px" viewBox="0 0 24 24" version="1.1" xmlns="http://www.w3.org/2000/svg" xmlns:xlink="http://www.w3.org/1999/xlink">
    <title>icon_last</title>
    <g id="icon_last" stroke="none" stroke-width="1" fill="none" fill-rule="evenodd">
        <g id="number-2" transform="translate(5.333333, 5.055556)" fill="#FF1949">
            <path d="M11.9444444,0 C12.5555556,0 13.0555556,0.407608696 13.0555556,0.905797101 L13.0555556,12.9830918 C13.0555556,13.4480676 12.62,13.8341385 12.06507,13.883548 L11.9444444,13.8888889 C11.3333333,13.8888889 10.8333333,13.4812802 10.8333333,12.9830918 L10.8339539,7.67746753 C10.7779822,7.74082616 10.7149755,7.79754149 10.6462963,7.84631643 L10.6462963,7.84631643 L10.6478395,7.84692029 L1.69969136,13.6817633 C1.52345679,13.8106884 1.30925926,13.8888889 1.07530864,13.8888889 C0.480864198,13.8888889 0,13.3979469 0,12.7925725 L0,12.7925725 L0,1.09601449 C0,0.490942029 0.480864198,0 1.07530864,0 C1.31234568,0 1.4867284,0.0815217391 1.70555556,0.206219807 L1.70555556,0.206219807 L10.6478395,6.04166667 C10.6469136,6.04257246 10.6462963,6.04347826 10.6462963,6.04347826 C10.714988,6.09226208 10.7780052,6.14893441 10.8339845,6.21222439 L10.8333333,0.905797101 C10.8333333,0.407608696 11.3333333,0 11.9444444,0 Z" id="shape" transform="translate(6.527778, 6.944444) scale(-1, 1) translate(-6.527778, -6.944444) "></path>
        </g>
    </g>
</svg>