<?xml version="1.0" encoding="UTF-8"?>
<svg width="28px" height="28px" viewBox="0 0 28 28" version="1.1" xmlns="http://www.w3.org/2000/svg" xmlns:xlink="http://www.w3.org/1999/xlink">
    <title>ic_play_all</title>
    <g id="ic_play_all" stroke="none" stroke-width="1" fill="none" fill-rule="evenodd">
        <path d="M14,1 C21.1797017,1 27,6.82029825 27,14 C27,21.1797017 21.1797017,27 14,27 C6.82029825,27 1,21.1797017 1,14 C1,6.82029825 6.82029825,1 14,1 Z M10.6484375,8.921875 L10.5370927,8.92780712 C10.0255096,8.98269391 9.6328125,9.4117152 9.6328125,9.93282565 L9.6328125,18.0671743 C9.6328125,18.6153408 10.0875233,19.078125 10.6484375,19.078125 L10.7597823,19.0721929 C11.2713654,19.0173061 11.6640625,18.5882848 11.6640625,18.0671743 L11.6640625,9.93282565 C11.6640625,9.38465915 11.2093517,8.921875 10.6484375,8.921875 Z M17.3515625,8.921875 L17.2402177,8.92780712 C16.7286346,8.98269391 16.3359375,9.4117152 16.3359375,9.93282565 L16.3359375,18.0671743 C16.3359375,18.6153408 16.7906483,19.078125 17.3515625,19.078125 L17.4629073,19.0721929 C17.9744904,19.0173061 18.3671875,18.5882848 18.3671875,18.0671743 L18.3671875,9.93282565 C18.3671875,9.38465915 17.9124767,8.921875 17.3515625,8.921875 Z" id="形状结合" fill="#FF1949"></path>
    </g>
</svg>