<?xml version="1.0" encoding="UTF-8"?>
<svg width="28px" height="28px" viewBox="0 0 28 28" version="1.1" xmlns="http://www.w3.org/2000/svg" xmlns:xlink="http://www.w3.org/1999/xlink">
    <title>ic_detail_play_all</title>
    <g id="ic_detail_play_all" stroke="none" stroke-width="1" fill="none" fill-rule="evenodd">
        <g id="number-6" transform="translate(1.000000, 1.000000)">
            <circle id="ellipse" fill="#FF1949" cx="13" cy="13" r="13"></circle>
            <path d="M18.2913281,12.2930667 L10.5151552,7.71413333 C10.5151552,7.71413333 10.5204667,7.71224762 10.5204667,7.71413333 C10.330221,7.61628571 10.1788452,7.55238095 9.97266524,7.55238095 C9.45576667,7.55238095 9.03809524,7.93769524 9.03809524,8.41226667 C9.03809524,8.41478095 9.03833667,8.41750476 9.03833667,8.41750476 L9.03809524,8.4196 L9.03833667,17.5816571 C9.03833667,17.5837524 9.03809524,17.5858476 9.03809524,17.5877333 C9.03809524,18.0625143 9.45576667,18.447619 9.97266524,18.447619 C10.1761895,18.447619 10.3620895,18.3864381 10.5151552,18.2854476 L18.2922938,13.7081905 C18.5342052,13.5520952 18.6952381,13.2931238 18.6952381,13 C18.6952381,12.7068762 18.5342052,12.4487429 18.2913281,12.2930667 Z" id="Fill-1" fill="#FFFFFF"></path>
        </g>
    </g>
</svg>