<?xml version="1.0" encoding="UTF-8"?>
<svg width="30px" height="30px" viewBox="0 0 30 30" version="1.1" xmlns="http://www.w3.org/2000/svg" xmlns:xlink="http://www.w3.org/1999/xlink">
    <title>icon_share</title>
    <defs>
        <path d="M15.3125,2.5 C17.3835678,2.5 19.0625,4.17893219 19.0625,6.25 C19.0625,8.32106781 17.3835678,10 15.3125,10 C14.9751711,10 14.6482452,9.95545986 14.3372823,9.87193976 L7.41509037,20.256121 C8.00184505,20.7505745 8.43479017,21.4217478 8.63188423,22.1875995 L21.3681158,22.1875995 C21.7843713,20.5701485 23.2526147,19.375 25,19.375 C27.0710678,19.375 28.75,21.0539322 28.75,23.125 C28.75,25.1960678 27.0710678,26.875 25,26.875 C23.2526147,26.875 21.7843713,25.6798515 21.3681158,24.0624005 L8.63188423,24.0624005 C8.21562873,25.6798515 6.74738531,26.875 5,26.875 C2.92893219,26.875 1.25,25.1960678 1.25,23.125 C1.25,21.0539322 2.92893219,19.375 5,19.375 C5.24015948,19.375 5.47504608,19.3975758 5.70265338,19.4407211 L12.7029671,8.9431134 C11.9996424,8.26148233 11.5625,7.3067912 11.5625,6.25 C11.5625,4.17893219 13.2414322,2.5 15.3125,2.5 Z M5,21.25 C3.96446609,21.25 3.125,22.0894661 3.125,23.125 C3.125,24.1605339 3.96446609,25 5,25 C6.03553391,25 6.875,24.1605339 6.875,23.125 C6.875,22.0894661 6.03553391,21.25 5,21.25 Z M25,21.25 C23.9644661,21.25 23.125,22.0894661 23.125,23.125 C23.125,24.1605339 23.9644661,25 25,25 C26.0355339,25 26.875,24.1605339 26.875,23.125 C26.875,22.0894661 26.0355339,21.25 25,21.25 Z M15.3125,4.375 C14.2769661,4.375 13.4375,5.21446609 13.4375,6.25 C13.4375,7.28553391 14.2769661,8.125 15.3125,8.125 C16.3480339,8.125 17.1875,7.28553391 17.1875,6.25 C17.1875,5.21446609 16.3480339,4.375 15.3125,4.375 Z" id="path-1"></path>
    </defs>
    <g id="icon_share" stroke="none" stroke-width="1" fill="none" fill-rule="evenodd">
        <mask id="mask-2" fill="white">
            <use xlink:href="#path-1"></use>
        </mask>
        <use id="shape" fill="#556B89" fill-rule="nonzero" xlink:href="#path-1"></use>
    </g>
</svg>