<?xml version="1.0" encoding="UTF-8"?>
<svg width="16px" height="16px" viewBox="0 0 16 16" version="1.1" xmlns="http://www.w3.org/2000/svg" xmlns:xlink="http://www.w3.org/1999/xlink">
    <title>icon_SQ</title>
    <g id="icon_SQ" stroke="none" stroke-width="1" fill="none" fill-rule="evenodd">
        <path d="M11.5814864,3 C12.7701781,3 13.2012264,3.12376748 13.6357943,3.35617694 C14.0703622,3.5885864 14.4114136,3.92963783 14.6438231,4.36420573 C14.8762325,4.79877363 15,5.22982195 15,6.4185136 L15,9.5814864 C15,10.7701781 14.8762325,11.2012264 14.6438231,11.6357943 C14.4114136,12.0703622 14.0703622,12.4114136 13.6357943,12.6438231 C13.2012264,12.8762325 12.7701781,13 11.5814864,13 L4.4185136,13 C3.22982195,13 2.79877363,12.8762325 2.36420573,12.6438231 C1.92963783,12.4114136 1.5885864,12.0703622 1.35617694,11.6357943 C1.12376748,11.2012264 1,10.7701781 1,9.5814864 L1,6.4185136 C1,5.22982195 1.12376748,4.79877363 1.35617694,4.36420573 C1.5885864,3.92963783 1.92963783,3.5885864 2.36420573,3.35617694 C2.77590164,3.13599956 3.18443869,3.0133291 4.23701068,3.00102633 L11.5814864,3 Z M11.5814864,4 L4.4185136,4 L4.09619575,4.0030051 C3.40540977,4.01726674 3.12385076,4.08394136 2.83580459,4.23799014 C2.57550516,4.37719979 2.37719979,4.57550516 2.23799014,4.83580459 C2.08394136,5.12385076 2.01726674,5.40540977 2.0030051,6.09619575 L2,6.4185136 L2,9.5814864 C2,10.5142772 2.06193439,10.8349998 2.23799014,11.1641954 C2.37719979,11.4244948 2.57550516,11.6228002 2.83580459,11.7620099 C3.12385076,11.9160586 3.40540977,11.9827333 4.09619575,11.9969949 L4.4185136,12 L11.5814864,12 L11.9038042,11.9969949 C12.5945902,11.9827333 12.8761492,11.9160586 13.1641954,11.7620099 C13.4244948,11.6228002 13.6228002,11.4244948 13.7620099,11.1641954 C13.9160586,10.8761492 13.9827333,10.5945902 13.9969949,9.90380425 L14,9.5814864 L14,6.4185136 L13.9969949,6.09619575 C13.9827333,5.40540977 13.9160586,5.12385076 13.7620099,4.83580459 C13.6228002,4.57550516 13.4244948,4.37719979 13.1641954,4.23799014 C12.8761492,4.08394136 12.5945902,4.01726674 11.9038042,4.0030051 L11.5814864,4 Z M10.4532164,5.24583397 C11.1501941,5.24583397 11.7172922,5.46051287 12.1545107,5.88987067 C12.5917292,6.31922846 12.8103385,6.86051287 12.8103385,7.51372388 L12.8103385,7.51372388 L12.8103385,8.47519177 L12.8029845,8.67404498 C12.7882766,8.86991654 12.7515069,9.05684314 12.6926752,9.23482479 C12.6142331,9.47213366 12.5029996,9.68620094 12.3589747,9.87702663 L12.3589747,9.87702663 L13.1961195,10.6733569 L12.4592777,11.245834 L11.6375642,10.4751918 L11.4611765,10.5561296 C11.34087,10.6053311 11.2151339,10.6450185 11.0839684,10.6751918 C10.8872201,10.7204517 10.6795413,10.7430817 10.460932,10.7430817 C9.76652619,10.7430817 9.2032859,10.5290144 8.77121115,10.1008798 C8.3391364,9.67274528 8.12309903,9.13084926 8.12309903,8.47519177 L8.12309903,8.47519177 L8.12309903,7.51372388 L8.1310766,7.3001323 C8.17362364,6.74160925 8.38635886,6.27152204 8.76928224,5.88987067 C9.20007105,5.46051287 9.76138244,5.24583397 10.4532164,5.24583397 Z M5.32618661,5.24583397 C5.94858,5.24583397 6.44945236,5.39506944 6.8288037,5.69354039 C7.20815504,5.99201134 7.39140102,6.38344865 7.37854166,6.86785232 L7.37854166,6.86785232 L7.37082604,6.88987067 L6.27906574,6.88987067 L6.27199309,6.76168514 C6.24841758,6.55662228 6.16590331,6.39445782 6.02445026,6.27519177 C5.85470661,6.1320725 5.61680832,6.06051287 5.31075537,6.06051287 C5.03299304,6.06051287 4.8182416,6.12412143 4.66650106,6.25133856 C4.51476053,6.37855568 4.43889026,6.54124681 4.43889026,6.73941195 C4.43889026,6.92045171 4.52119021,7.06907556 4.68579011,7.18528351 C4.85039002,7.30149146 5.13458204,7.42442724 5.53836618,7.55409085 C6.15561581,7.72045171 6.62626866,7.93757709 6.95032472,8.205467 C7.27438078,8.4733569 7.43640881,8.8262621 7.43640881,9.26418259 C7.43640881,9.72167495 7.24866204,10.0825312 6.87316852,10.3467514 C6.49767499,10.6109716 6.0013034,10.7430817 5.38405377,10.7430817 C4.7796635,10.7430817 4.26078802,10.5999624 3.82742734,10.3137239 C3.39406666,10.0274853 3.183816,9.60057403 3.19667537,9.03298993 L3.19667537,9.03298993 L3.20439099,9.01097158 L4.29615128,9.01097158 L4.30213482,9.14113447 C4.32606899,9.3912749 4.42180567,9.58030317 4.58934486,9.70821929 C4.78480724,9.85745476 5.04971021,9.9320725 5.38405377,9.9320725 C5.68496296,9.9320725 5.91450267,9.87213366 6.07267289,9.75225599 C6.23084311,9.63237831 6.30992822,9.47213366 6.30992822,9.27152204 C6.30992822,9.06601745 6.23470092,8.90087984 6.08424632,8.7761092 C5.93379172,8.65133856 5.66953172,8.53390736 5.29146632,8.42381562 C4.6433542,8.2378829 4.1514834,8.01892265 3.81585391,7.76693489 C3.48022442,7.51494712 3.31240967,7.17121623 3.31240967,6.73574223 C3.31240967,6.29782174 3.50144237,5.94002357 3.87950778,5.66234773 C4.25757318,5.38467189 4.73979946,5.24583397 5.32618661,5.24583397 Z M10.4532164,6.08253122 C10.0725791,6.08253122 9.77617071,6.21586455 9.56399115,6.48253122 C9.35181159,6.74919788 9.24572181,7.09048229 9.24572181,7.50638443 L9.24572181,7.50638443 L9.24572181,8.47519177 L9.25225647,8.65178791 C9.2783951,8.99539398 9.38294963,9.28148272 9.56592006,9.51005415 C9.77938556,9.77672082 10.0777229,9.91005415 10.460932,9.91005415 C10.8467131,9.91005415 11.1476223,9.77672082 11.3636596,9.51005415 C11.579697,9.24338749 11.6877157,8.89843336 11.6877157,8.47519177 L11.6877157,8.47519177 L11.6877157,7.50638443 L11.6810236,7.33270909 C11.6542551,6.99449527 11.5471812,6.71110264 11.3598018,6.48253122 C11.1411926,6.21586455 10.8389974,6.08253122 10.4532164,6.08253122 Z" id="shape" fill="#FF1949" fill-rule="nonzero"></path>
    </g>
</svg>