<?xml version="1.0" encoding="UTF-8"?>
<svg width="24px" height="24px" viewBox="0 0 24 24" version="1.1" xmlns="http://www.w3.org/2000/svg" xmlns:xlink="http://www.w3.org/1999/xlink">
    <title>ic_sort_list</title>
    <g id="ic_sort_list" stroke="none" stroke-width="1" fill="none" fill-rule="evenodd" fill-opacity="0.6">
        <path d="M8.94068811,16.1212988 C9.20613685,16.3883807 9.22906499,16.8051167 9.01031112,17.0980587 L8.93743534,17.181954 L6.62170048,19.4835287 C6.35541431,19.7481866 5.94017233,19.7718713 5.64722327,19.5548431 L5.56327859,19.4825135 L4.02027932,17.9430543 C3.72704992,17.6504976 3.72650456,17.1756242 4.01906121,16.8823948 C4.28502181,16.6158226 4.70165741,16.5911381 4.99551891,16.8086552 L5.07972068,16.8811767 L6.09385653,17.8934842 L7.88003293,16.118046 C8.173823,15.8260524 8.6486945,15.8275087 8.94068811,16.1212988 Z M19.5841899,17.5 C19.9984034,17.5 20.3341899,17.8357864 20.3341899,18.25 C20.3341899,18.6642136 19.9984034,19 19.5841899,19 L11.5425232,19 C11.1283096,19 10.7925232,18.6642136 10.7925232,18.25 C10.7925232,17.8357864 11.1283096,17.5 11.5425232,17.5 L19.5841899,17.5 Z M8.94068811,10.0812988 C9.20613685,10.3483807 9.22906499,10.7651167 9.01031112,11.0580587 L8.93743534,11.141954 L6.62170048,13.4435287 C6.35541431,13.7081866 5.94017233,13.7318713 5.64722327,13.5148431 L5.56327859,13.4425135 L4.02027932,11.9030543 C3.72704992,11.6104976 3.72650456,11.1356242 4.01906121,10.8423948 C4.28502181,10.5758226 4.70165741,10.5511381 4.99551891,10.7686552 L5.07972068,10.8411767 L6.09385653,11.8534842 L7.88003293,10.078046 C8.173823,9.78605243 8.6486945,9.78750875 8.94068811,10.0812988 Z M19.5841899,11.25 C19.9984034,11.25 20.3341899,11.5857864 20.3341899,12 C20.3341899,12.4142136 19.9984034,12.75 19.5841899,12.75 L11.5425232,12.75 C11.1283096,12.75 10.7925232,12.4142136 10.7925232,12 C10.7925232,11.5857864 11.1283096,11.25 11.5425232,11.25 L19.5841899,11.25 Z M8.94068811,4.01881466 C9.20613685,4.28589654 9.22906499,4.7026325 9.01031112,4.99557451 L8.93743534,5.07946985 L6.62170048,7.38104455 C6.35541431,7.64570244 5.94017233,7.66938719 5.64722327,7.45235896 L5.56327859,7.38002937 L4.02027932,5.84057014 C3.72704992,5.54801349 3.72650456,5.07314006 4.01906121,4.77991067 C4.28502181,4.51333849 4.70165741,4.48865394 4.99551891,4.70617106 L5.07972068,4.77869256 L6.09385653,5.791 L7.88003293,4.01556189 C8.173823,3.72356828 8.6486945,3.72502459 8.94068811,4.01881466 Z M19.5841899,5 C19.9984034,5 20.3341899,5.33578644 20.3341899,5.75 C20.3341899,6.16421356 19.9984034,6.5 19.5841899,6.5 L11.5425232,6.5 C11.1283096,6.5 10.7925232,6.16421356 10.7925232,5.75 C10.7925232,5.33578644 11.1283096,5 11.5425232,5 L19.5841899,5 Z" id="shape" fill="#000000" fill-rule="nonzero"></path>
    </g>
</svg>