<?xml version="1.0" encoding="UTF-8"?>
<svg width="16px" height="16px" viewBox="0 0 16 16" version="1.1" xmlns="http://www.w3.org/2000/svg" xmlns:xlink="http://www.w3.org/1999/xlink">
    <title>icon_vip</title>
    <g id="icon_vip" stroke="none" stroke-width="1" fill="none" fill-rule="evenodd">
        <path d="M11.5814864,3 C12.7701781,3 13.2012264,3.12376748 13.6357943,3.35617694 C14.0703622,3.5885864 14.4114136,3.92963783 14.6438231,4.36420573 C14.8762325,4.79877363 15,5.22982195 15,6.4185136 L15,9.5814864 C15,10.7701781 14.8762325,11.2012264 14.6438231,11.6357943 C14.4114136,12.0703622 14.0703622,12.4114136 13.6357943,12.6438231 C13.2012264,12.8762325 12.7701781,13 11.5814864,13 L4.4185136,13 C3.22982195,13 2.79877363,12.8762325 2.36420573,12.6438231 C1.92963783,12.4114136 1.5885864,12.0703622 1.35617694,11.6357943 C1.12376748,11.2012264 1,10.7701781 1,9.5814864 L1,6.4185136 C1,5.22982195 1.12376748,4.79877363 1.35617694,4.36420573 C1.5885864,3.92963783 1.92963783,3.5885864 2.36420573,3.35617694 C2.79877363,3.12376748 3.22982195,3 4.4185136,3 L11.5814864,3 Z M11.7493635,4.00073853 L4.4185136,4 C3.48572281,4 3.16500021,4.06193439 2.83580459,4.23799014 C2.57550516,4.37719979 2.37719979,4.57550516 2.23799014,4.83580459 C2.08394136,5.12385076 2.01726674,5.40540977 2.0030051,6.09619575 L2,6.4185136 L2,9.5814864 C2,10.5142772 2.06193439,10.8349998 2.23799014,11.1641954 C2.37719979,11.4244948 2.57550516,11.6228002 2.83580459,11.7620099 C3.12385076,11.9160586 3.40540977,11.9827333 4.09619575,11.9969949 L4.4185136,12 L11.5814864,12 L11.9038042,11.9969949 C12.5945902,11.9827333 12.8761492,11.9160586 13.1641954,11.7620099 C13.4244948,11.6228002 13.6228002,11.4244948 13.7620099,11.1641954 C13.9160586,10.8761492 13.9827333,10.5945902 13.9969949,9.90380425 L14,9.5814864 L14,6.4185136 L13.9969949,6.09619575 C13.9827333,5.40540977 13.9160586,5.12385076 13.7620099,4.83580459 C13.6228002,4.57550516 13.4244948,4.37719979 13.1641954,4.23799014 C12.8555745,4.07293787 12.5544006,4.00818759 11.7493635,4.00073853 Z M3.89066453,5.68625215 L4.91605516,9.14002819 L4.97464891,9.40044485 L4.99418016,9.40044485 L5.0495187,9.14979381 L6.08141974,5.68625215 L7.08402391,5.68625215 L5.47269578,10.4258355 L4.49613328,10.4258355 L2.88806037,5.68625215 L3.89066453,5.68625215 Z M8.55863328,5.68625215 L8.55863328,10.4258355 L7.60811245,10.4258355 L7.60811245,5.68625215 L8.55863328,5.68625215 Z M11.3125395,5.68625215 L11.5113616,5.69276256 C11.9625809,5.72314451 12.3249093,5.85986326 12.5983468,6.10291881 C12.9108468,6.38069659 13.0670968,6.74636499 13.0670968,7.19992402 C13.0670968,7.65348305 12.9108468,8.01806638 12.5983468,8.29367402 C12.2858468,8.56928166 11.8572444,8.70708548 11.3125395,8.70708548 L11.3125395,8.70708548 L10.4499093,8.70708548 L10.4499093,10.4258355 L9.49938849,10.4258355 L9.49938849,5.68625215 L11.3125395,5.68625215 Z M11.3125395,6.41867402 L10.4499093,6.41867402 L10.4499093,7.9746636 L11.3125395,7.9746636 C11.5772965,7.9746636 11.7780343,7.90250649 11.9147531,7.75819225 C12.0514718,7.61387801 12.1198312,7.42995874 12.1198312,7.20643444 C12.1198312,6.97856985 12.0520144,6.79031031 11.9163807,6.64165579 C11.780747,6.49300128 11.5794666,6.41867402 11.3125395,6.41867402 L11.3125395,6.41867402 Z" id="shape" fill="#FF1949" fill-rule="nonzero"></path>
    </g>
</svg>